<?xml version="1.0" encoding="UTF-8"?>
<svg xmlns="http://www.w3.org/2000/svg" version="1.1" width="100" height="100" viewBox="0 0 100 100"><rect x="0" y="0" width="100" height="100" fill="#ffffff"/><g transform="scale(4.762)"><g transform="translate(0,0)"><path fill-rule="evenodd" d="M10 0L10 1L12 1L12 0ZM8 1L8 3L9 3L9 4L8 4L8 8L6 8L6 9L4 9L4 8L3 8L3 9L2 9L2 8L0 8L0 13L1 13L1 10L3 10L3 12L4 12L4 13L7 13L7 12L5 12L5 11L8 11L8 15L9 15L9 12L10 12L10 14L12 14L12 15L11 15L11 16L12 16L12 19L11 19L11 20L10 20L10 18L11 18L11 17L10 17L10 16L9 16L9 17L8 17L8 18L9 18L9 19L8 19L8 21L9 21L9 20L10 20L10 21L11 21L11 20L12 20L12 19L13 19L13 20L14 20L14 21L17 21L17 17L16 17L16 16L15 16L15 18L14 18L14 19L13 19L13 17L14 17L14 16L12 16L12 15L14 15L14 13L13 13L13 14L12 14L12 13L11 13L11 12L13 12L13 11L14 11L14 12L16 12L16 13L17 13L17 11L16 11L16 10L18 10L18 9L20 9L20 11L19 11L19 13L18 13L18 14L15 14L15 15L17 15L17 16L18 16L18 14L19 14L19 17L20 17L20 19L21 19L21 16L20 16L20 14L19 14L19 13L21 13L21 9L20 9L20 8L18 8L18 9L17 9L17 8L14 8L14 9L11 9L11 8L10 8L10 10L9 10L9 9L8 9L8 8L9 8L9 6L10 6L10 7L11 7L11 6L12 6L12 8L13 8L13 6L12 6L12 3L11 3L11 2L10 2L10 3L9 3L9 1ZM10 3L10 4L11 4L11 3ZM3 9L3 10L4 10L4 11L5 11L5 10L4 10L4 9ZM6 9L6 10L8 10L8 9ZM14 9L14 11L15 11L15 10L16 10L16 9ZM10 11L10 12L11 12L11 11ZM9 17L9 18L10 18L10 17ZM18 18L18 19L19 19L19 18ZM14 19L14 20L15 20L15 19ZM18 20L18 21L20 21L20 20ZM0 0L0 7L7 7L7 0ZM1 1L1 6L6 6L6 1ZM2 2L2 5L5 5L5 2ZM14 0L14 7L21 7L21 0ZM15 1L15 6L20 6L20 1ZM16 2L16 5L19 5L19 2ZM0 14L0 21L7 21L7 14ZM1 15L1 20L6 20L6 15ZM2 16L2 19L5 19L5 16Z" fill="#000000"/></g></g></svg>
