<?xml version="1.0" encoding="UTF-8"?>
<svg xmlns="http://www.w3.org/2000/svg" version="1.1" width="100" height="100" viewBox="0 0 100 100"><rect x="0" y="0" width="100" height="100" fill="#ffffff"/><g transform="scale(4.762)"><g transform="translate(0,0)"><path fill-rule="evenodd" d="M8 0L8 2L9 2L9 0ZM11 0L11 1L10 1L10 2L11 2L11 4L8 4L8 9L7 9L7 8L5 8L5 9L7 9L7 10L6 10L6 11L5 11L5 10L4 10L4 9L3 9L3 8L0 8L0 12L1 12L1 11L2 11L2 13L5 13L5 12L6 12L6 13L7 13L7 12L6 12L6 11L7 11L7 10L9 10L9 12L8 12L8 14L9 14L9 15L8 15L8 16L9 16L9 17L10 17L10 18L8 18L8 21L9 21L9 19L10 19L10 20L11 20L11 21L12 21L12 19L13 19L13 21L14 21L14 19L15 19L15 18L14 18L14 17L13 17L13 16L14 16L14 15L15 15L15 17L16 17L16 20L17 20L17 21L18 21L18 18L19 18L19 19L21 19L21 18L19 18L19 17L18 17L18 15L19 15L19 16L21 16L21 14L20 14L20 15L19 15L19 13L20 13L20 12L21 12L21 8L19 8L19 9L17 9L17 8L13 8L13 6L12 6L12 4L13 4L13 3L12 3L12 2L11 2L11 1L13 1L13 0ZM10 5L10 6L9 6L9 9L10 9L10 8L11 8L11 12L12 12L12 13L13 13L13 15L12 15L12 14L11 14L11 17L12 17L12 16L13 16L13 15L14 15L14 14L15 14L15 15L16 15L16 17L17 17L17 15L16 15L16 12L17 12L17 11L18 11L18 13L17 13L17 14L18 14L18 13L19 13L19 12L20 12L20 9L19 9L19 10L17 10L17 11L16 11L16 12L15 12L15 11L14 11L14 12L12 12L12 9L13 9L13 10L16 10L16 9L13 9L13 8L11 8L11 7L12 7L12 6L11 6L11 5ZM10 6L10 7L11 7L11 6ZM3 11L3 12L5 12L5 11ZM9 12L9 14L10 14L10 12ZM14 12L14 13L15 13L15 12ZM9 15L9 16L10 16L10 15ZM11 18L11 19L12 19L12 18ZM13 18L13 19L14 19L14 18ZM20 20L20 21L21 21L21 20ZM0 0L0 7L7 7L7 0ZM1 1L1 6L6 6L6 1ZM2 2L2 5L5 5L5 2ZM14 0L14 7L21 7L21 0ZM15 1L15 6L20 6L20 1ZM16 2L16 5L19 5L19 2ZM0 14L0 21L7 21L7 14ZM1 15L1 20L6 20L6 15ZM2 16L2 19L5 19L5 16Z" fill="#000000"/></g></g></svg>
