<?xml version="1.0" encoding="UTF-8"?>
<svg xmlns="http://www.w3.org/2000/svg" version="1.1" width="100" height="100" viewBox="0 0 100 100"><rect x="0" y="0" width="100" height="100" fill="#ffffff"/><g transform="scale(4.762)"><g transform="translate(0,0)"><path fill-rule="evenodd" d="M8 0L8 1L9 1L9 2L8 2L8 5L11 5L11 6L10 6L10 7L9 7L9 6L8 6L8 7L9 7L9 8L8 8L8 10L4 10L4 11L3 11L3 13L4 13L4 12L5 12L5 11L9 11L9 13L8 13L8 12L6 12L6 13L8 13L8 14L11 14L11 16L14 16L14 15L12 15L12 14L15 14L15 13L16 13L16 15L15 15L15 16L16 16L16 17L18 17L18 18L17 18L17 19L19 19L19 14L18 14L18 11L19 11L19 12L20 12L20 14L21 14L21 8L20 8L20 10L18 10L18 9L19 9L19 8L16 8L16 9L15 9L15 11L16 11L16 12L13 12L13 11L14 11L14 10L13 10L13 11L12 11L12 14L11 14L11 13L10 13L10 12L11 12L11 6L12 6L12 7L13 7L13 6L12 6L12 5L13 5L13 3L11 3L11 2L10 2L10 0ZM9 2L9 3L10 3L10 4L11 4L11 5L12 5L12 4L11 4L11 3L10 3L10 2ZM0 8L0 9L1 9L1 13L2 13L2 10L3 10L3 9L4 9L4 8ZM6 8L6 9L7 9L7 8ZM9 8L9 11L10 11L10 8ZM13 8L13 9L14 9L14 8ZM16 9L16 11L18 11L18 10L17 10L17 9ZM16 12L16 13L17 13L17 12ZM16 15L16 16L17 16L17 15ZM9 16L9 17L8 17L8 21L9 21L9 17L10 17L10 18L11 18L11 19L10 19L10 20L11 20L11 21L15 21L15 20L16 20L16 21L17 21L17 20L16 20L16 19L14 19L14 18L15 18L15 17L14 17L14 18L13 18L13 17L12 17L12 18L11 18L11 17L10 17L10 16ZM20 16L20 17L21 17L21 16ZM11 19L11 20L13 20L13 19ZM20 19L20 20L21 20L21 19ZM18 20L18 21L19 21L19 20ZM0 0L0 7L7 7L7 0ZM1 1L1 6L6 6L6 1ZM2 2L2 5L5 5L5 2ZM14 0L14 7L21 7L21 0ZM15 1L15 6L20 6L20 1ZM16 2L16 5L19 5L19 2ZM0 14L0 21L7 21L7 14ZM1 15L1 20L6 20L6 15ZM2 16L2 19L5 19L5 16Z" fill="#000000"/></g></g></svg>
