<?xml version="1.0" encoding="UTF-8"?>
<svg xmlns="http://www.w3.org/2000/svg" version="1.1" width="100" height="100" viewBox="0 0 100 100"><rect x="0" y="0" width="100" height="100" fill="#ffffff"/><g transform="scale(4.762)"><g transform="translate(0,0)"><path fill-rule="evenodd" d="M8 0L8 1L9 1L9 2L8 2L8 5L11 5L11 4L12 4L12 3L13 3L13 0L12 0L12 3L11 3L11 2L10 2L10 0ZM9 2L9 4L11 4L11 3L10 3L10 2ZM8 6L8 7L9 7L9 8L8 8L8 9L9 9L9 8L10 8L10 10L11 10L11 6L10 6L10 7L9 7L9 6ZM12 6L12 7L13 7L13 6ZM0 8L0 10L1 10L1 12L0 12L0 13L1 13L1 12L2 12L2 13L5 13L5 12L6 12L6 13L8 13L8 14L9 14L9 13L8 13L8 12L10 12L10 13L11 13L11 14L10 14L10 15L9 15L9 17L8 17L8 21L9 21L9 19L10 19L10 20L11 20L11 21L16 21L16 20L17 20L17 19L19 19L19 18L20 18L20 16L19 16L19 14L18 14L18 11L19 11L19 13L20 13L20 14L21 14L21 12L20 12L20 11L21 11L21 8L20 8L20 10L18 10L18 9L19 9L19 8L16 8L16 9L14 9L14 8L13 8L13 9L12 9L12 12L10 12L10 11L8 11L8 12L6 12L6 11L7 11L7 10L4 10L4 8ZM6 8L6 9L7 9L7 8ZM1 9L1 10L2 10L2 9ZM13 9L13 12L12 12L12 14L11 14L11 15L12 15L12 17L15 17L15 18L13 18L13 19L15 19L15 20L16 20L16 19L17 19L17 15L18 15L18 14L17 14L17 15L16 15L16 13L17 13L17 12L16 12L16 11L18 11L18 10L17 10L17 9L16 9L16 11L15 11L15 10L14 10L14 9ZM3 10L3 12L5 12L5 11L4 11L4 10ZM14 12L14 13L13 13L13 14L14 14L14 15L13 15L13 16L14 16L14 15L15 15L15 14L14 14L14 13L16 13L16 12ZM10 16L10 17L9 17L9 18L10 18L10 19L11 19L11 18L10 18L10 17L11 17L11 16ZM18 17L18 18L19 18L19 17ZM20 19L20 20L21 20L21 19ZM18 20L18 21L19 21L19 20ZM0 0L0 7L7 7L7 0ZM1 1L1 6L6 6L6 1ZM2 2L2 5L5 5L5 2ZM14 0L14 7L21 7L21 0ZM15 1L15 6L20 6L20 1ZM16 2L16 5L19 5L19 2ZM0 14L0 21L7 21L7 14ZM1 15L1 20L6 20L6 15ZM2 16L2 19L5 19L5 16Z" fill="#000000"/></g></g></svg>
