<?xml version="1.0" encoding="UTF-8"?>
<svg xmlns="http://www.w3.org/2000/svg" version="1.1" width="100" height="100" viewBox="0 0 100 100"><rect x="0" y="0" width="100" height="100" fill="#ffffff"/><g transform="scale(4.762)"><g transform="translate(0,0)"><path fill-rule="evenodd" d="M9 0L9 1L8 1L8 2L9 2L9 3L8 3L8 4L9 4L9 3L10 3L10 2L9 2L9 1L10 1L10 0ZM12 0L12 1L11 1L11 2L12 2L12 1L13 1L13 0ZM11 3L11 4L10 4L10 5L8 5L8 7L9 7L9 6L10 6L10 8L6 8L6 9L5 9L5 8L0 8L0 10L1 10L1 9L2 9L2 11L1 11L1 12L0 12L0 13L5 13L5 12L6 12L6 13L7 13L7 12L9 12L9 11L7 11L7 10L10 10L10 11L12 11L12 10L13 10L13 11L14 11L14 10L13 10L13 9L14 9L14 8L13 8L13 4L12 4L12 3ZM11 5L11 7L12 7L12 5ZM10 8L10 10L12 10L12 8ZM15 8L15 10L16 10L16 11L15 11L15 12L16 12L16 13L17 13L17 14L18 14L18 13L19 13L19 15L20 15L20 16L21 16L21 15L20 15L20 14L21 14L21 13L19 13L19 12L21 12L21 11L20 11L20 10L21 10L21 9L20 9L20 8L19 8L19 9L18 9L18 8L17 8L17 9L18 9L18 10L16 10L16 8ZM3 9L3 10L4 10L4 12L5 12L5 11L6 11L6 12L7 12L7 11L6 11L6 10L7 10L7 9L6 9L6 10L5 10L5 9ZM19 9L19 10L20 10L20 9ZM2 11L2 12L3 12L3 11ZM17 11L17 13L18 13L18 11ZM11 12L11 13L8 13L8 15L9 15L9 16L8 16L8 21L12 21L12 20L11 20L11 19L12 19L12 18L13 18L13 19L14 19L14 18L13 18L13 16L15 16L15 18L16 18L16 19L15 19L15 20L16 20L16 21L20 21L20 20L19 20L19 16L18 16L18 15L17 15L17 16L18 16L18 18L16 18L16 16L15 16L15 15L16 15L16 14L15 14L15 13L14 13L14 12L13 12L13 13L12 13L12 12ZM10 14L10 15L12 15L12 14ZM13 14L13 15L14 15L14 14ZM10 16L10 19L9 19L9 20L10 20L10 19L11 19L11 18L12 18L12 16ZM17 19L17 20L18 20L18 19ZM13 20L13 21L14 21L14 20ZM0 0L0 7L7 7L7 0ZM1 1L1 6L6 6L6 1ZM2 2L2 5L5 5L5 2ZM14 0L14 7L21 7L21 0ZM15 1L15 6L20 6L20 1ZM16 2L16 5L19 5L19 2ZM0 14L0 21L7 21L7 14ZM1 15L1 20L6 20L6 15ZM2 16L2 19L5 19L5 16Z" fill="#000000"/></g></g></svg>
